<?xml version="1.0" encoding="utf-8"?>
<!-- Generator: Adobe Illustrator 24.3.0, SVG Export Plug-In . SVG Version: 6.00 Build 0)  -->
<svg version="1.1" id="Layer_1" xmlns="http://www.w3.org/2000/svg" xmlns:xlink="http://www.w3.org/1999/xlink" x="0px" y="0px"
	 viewBox="0 0 512 512" style="enable-background:new 0 0 512 512;" xml:space="preserve">
<style type="text/css">
	.st0{fill:#A4C639;}
	.st1{fill:#FFFFFF;}
</style>
<g id="XMLID_1_">
	<g id="XMLID_2_">
		<g id="b">
			<g id="XMLID_49_">
				<ellipse id="XMLID_45_" class="st0" cx="256" cy="164.61" rx="135.28" ry="124.9"/>
				<path id="XMLID_46_" class="st1" d="M256,300.19c-80.44,0-145.96-60.84-145.96-135.58S175.56,29.03,256,29.03
					s145.96,60.84,145.96,135.58S336.44,300.19,256,300.19z M256,50.53c-68.74,0-124.61,51.19-124.61,114.22
					c0,62.89,55.87,114.22,124.61,114.22s124.61-51.19,124.61-114.22S324.74,50.53,256,50.53z"/>
			</g>
			<g id="XMLID_44_">
				<path id="XMLID_40_" class="st0" d="M153.48,133.46h205.19c18.14,0,32.76,14.63,32.76,32.76v205.19
					c0,18.14-14.63,32.76-32.76,32.76H153.48c-18.14,0-32.76-14.63-32.76-32.76V166.07C120.72,148.08,135.34,133.46,153.48,133.46z"
					/>
				<path id="XMLID_41_" class="st1" d="M358.52,414.7H153.48c-23.99,0-43.44-19.45-43.44-43.44V166.07
					c0-23.99,19.45-43.44,43.44-43.44h205.19c23.99,0,43.44,19.45,43.44,43.44v205.19C401.96,395.25,382.51,414.7,358.52,414.7z
					 M153.48,144.13c-12.14,0-21.94,9.8-21.94,21.94v205.19c0,12.14,9.8,21.94,21.94,21.94h205.19c12.14,0,21.94-9.8,21.94-21.94
					V166.07c0-12.14-9.8-21.94-21.94-21.94H153.48z"/>
			</g>
		</g>
	</g>
	<g id="XMLID_3_">
		<g id="a">
			<g id="XMLID_39_">
				<path id="XMLID_35_" class="st0" d="M167.37,6.65L167.37,6.65c-4.68,2.63-6.29,8.48-3.8,13.16l52.65,94.92
					c2.63,4.68,8.48,6.29,13.16,3.8l0,0c4.68-2.63,6.29-8.48,3.8-13.16l-52.65-94.92C177.9,5.78,172.05,4.02,167.37,6.65z"/>
				<path id="XMLID_36_" class="st1" d="M224.7,124.97c-1.46,0-2.78-0.15-4.1-0.59c-3.8-1.17-7.02-3.66-9.07-7.17L158.89,22.3
					c-3.95-7.31-1.32-16.38,5.85-20.48l0,0c7.31-3.95,16.38-1.32,20.48,5.85l52.65,94.92c1.9,3.51,2.34,7.61,1.32,11.41
					c-1.17,3.8-3.66,7.02-7.17,8.92C229.67,124.39,227.19,124.97,224.7,124.97z M170,11.34c-2.05,1.17-2.78,3.8-1.61,5.85
					l52.65,94.92c0.59,1.02,1.46,1.76,2.63,2.05c1.17,0.29,2.34,0.15,3.22-0.44c2.05-1.17,2.78-3.8,1.61-5.85l-52.65-94.92
					C174.68,10.9,172.05,10.16,170,11.34L170,11.34z"/>
			</g>
			<g id="XMLID_34_">
				<path id="c_1_" class="st0" d="M432.97,164.61L432.97,164.61c-19.74,0-35.69,15.94-35.69,35.69v126.36
					c0,19.74,15.94,35.69,35.69,35.69l0,0c19.74,0,35.69-15.94,35.69-35.69V200.29C468.65,180.7,452.57,164.61,432.97,164.61z"/>
				<path id="XMLID_31_" class="st1" d="M432.97,367.76c-22.67,0-41.1-18.43-41.1-41.1V200.29c0-22.67,18.43-41.1,41.1-41.1
					s41.1,18.43,41.1,41.1v126.36C473.92,349.33,455.49,367.76,432.97,367.76z M432.97,170.02c-16.67,0-30.27,13.6-30.27,30.27
					v126.36c0,16.67,13.6,30.27,30.27,30.27s30.27-13.6,30.27-30.27V200.29C463.24,183.62,449.64,170.02,432.97,170.02z"/>
			</g>
			<g transform="scale(-1,1)">
				<g id="XMLID_30_">
					<path id="c_2_" class="st0" d="M-319.04,308.82L-319.04,308.82c-19.74,0-35.69,15.94-35.69,35.69v126.36
						c0,19.74,15.94,35.69,35.69,35.69l0,0c19.74,0,35.69-15.94,35.69-35.69V344.5C-283.35,324.9-299.44,308.82-319.04,308.82z"/>
					<path id="XMLID_27_" class="st1" d="M-319.04,511.96c-22.67,0-41.1-18.43-41.1-41.1V344.5c0-22.67,18.43-41.1,41.1-41.1
						s41.1,18.43,41.1,41.1v126.36C-278.08,493.53-296.51,511.96-319.04,511.96z M-319.04,314.23c-16.67,0-30.27,13.6-30.27,30.27
						v126.36c0,16.67,13.6,30.27,30.27,30.27c16.67,0,30.27-13.6,30.27-30.27V344.5C-288.76,327.83-302.36,314.23-319.04,314.23z"/>
				</g>
			</g>
		</g>
		<g id="a_1_">
			<g id="XMLID_26_">
				<path id="XMLID_22_" class="st0" d="M344.63,6.65L344.63,6.65c4.68,2.63,6.29,8.48,3.8,13.16l-52.65,94.92
					c-2.63,4.68-8.48,6.29-13.16,3.8l0,0c-4.68-2.63-6.29-8.48-3.8-13.16l52.65-94.92C334.1,5.78,339.95,4.02,344.63,6.65z"/>
				<path id="XMLID_23_" class="st1" d="M287.3,124.97c-2.49,0-4.97-0.59-7.31-1.9c-7.31-3.95-9.8-13.16-5.85-20.48l52.65-94.92
					c3.95-7.31,13.16-9.8,20.48-5.85l0,0c7.31,3.95,9.8,13.16,5.85,20.48l-52.65,94.92c-1.9,3.51-5.12,6-8.92,7.17
					C290.08,124.83,288.76,124.97,287.3,124.97z M339.95,10.75c-1.46,0-2.93,0.73-3.8,2.19l-52.65,94.92
					c-1.17,2.05-0.44,4.68,1.61,5.85c1.02,0.59,2.19,0.73,3.22,0.44c1.17-0.29,2.05-1.02,2.63-2.05l52.65-94.92
					c1.17-2.05,0.44-4.68-1.61-5.85l0,0C341.41,10.9,340.68,10.75,339.95,10.75z"/>
			</g>
			<g id="XMLID_21_">
				<path id="c_3_" class="st0" d="M79.03,164.61L79.03,164.61c19.74,0,35.69,15.94,35.69,35.69v126.36
					c0,19.74-15.94,35.69-35.69,35.69l0,0c-19.74,0-35.69-15.94-35.69-35.69V200.29C43.35,180.7,59.43,164.61,79.03,164.61z"/>
				<path id="XMLID_18_" class="st1" d="M79.03,367.76c-22.67,0-41.1-18.43-41.1-41.1V200.29c0-22.67,18.43-41.1,41.1-41.1
					s41.1,18.43,41.1,41.1v126.36C120.13,349.33,101.7,367.76,79.03,367.76z M79.03,170.02c-16.67,0-30.27,13.6-30.27,30.27v126.36
					c0,16.67,13.6,30.27,30.27,30.27s30.27-13.6,30.27-30.27V200.29C109.45,183.62,95.85,170.02,79.03,170.02z"/>
			</g>
			<g id="XMLID_5_">
				<g id="XMLID_17_">
					<path id="c_4_" class="st0" d="M205.4,308.82L205.4,308.82c19.74,0,35.69,15.94,35.69,35.69v126.36
						c0,19.74-15.94,35.69-35.69,35.69l0,0c-19.74,0-35.69-15.94-35.69-35.69V344.5C169.71,324.9,185.8,308.82,205.4,308.82z"/>
					<path id="XMLID_14_" class="st1" d="M205.4,511.96c-22.67,0-41.1-18.43-41.1-41.1V344.5c0-22.67,18.43-41.1,41.1-41.1
						s41.1,18.43,41.1,41.1v126.36C246.49,493.53,228.07,511.96,205.4,511.96z M205.4,314.23c-16.67,0-30.27,13.6-30.27,30.27
						v126.36c0,16.67,13.6,30.27,30.27,30.27s30.27-13.6,30.27-30.27V344.5C235.82,327.83,222.22,314.23,205.4,314.23z"/>
				</g>
			</g>
		</g>
		<g id="b_1_">
			<ellipse id="XMLID_51_" class="st0" cx="256" cy="164.61" rx="135.28" ry="124.9"/>
			<path id="XMLID_50_" class="st0" d="M153.48,133.46h205.19c18.14,0,32.76,14.63,32.76,32.76v205.19
				c0,18.14-14.63,32.76-32.76,32.76H153.48c-18.14,0-32.76-14.63-32.76-32.76V166.07C120.72,148.08,135.34,133.46,153.48,133.46z"
				/>
		</g>
	</g>
	<g id="XMLID_4_">
		<g id="XMLID_13_">
			<path id="XMLID_11_" class="st1" d="M114.72,169.87h282.42"/>
			<rect id="XMLID_12_" x="114.72" y="164.46" class="st1" width="282.42" height="10.68"/>
		</g>
		<g id="XMLID_6_">
			<circle id="XMLID_7_" class="st1" cx="193.55" cy="103.62" r="6"/>
			<path id="XMLID_8_" class="st1" d="M193.55,115.03c-6.29,0-11.26-5.12-11.26-11.26c0-6.29,5.12-11.26,11.26-11.26
				c6.29,0,11.26,5.12,11.26,11.26C204.81,109.91,199.84,115.03,193.55,115.03z M193.55,103.04c-0.29,0-0.58,0.29-0.58,0.59
				s0.29,0.59,0.58,0.59c0.29,0,0.59-0.29,0.59-0.59S193.84,103.04,193.55,103.04z"/>
		</g>
		<g id="XMLID_52_">
			<circle id="XMLID_53_" class="st1" cx="318.45" cy="103.62" r="6"/>
			<path id="XMLID_54_" class="st1" d="M318.45,115.03c-6.29,0-11.26-5.12-11.26-11.26c0-6.29,5.12-11.26,11.26-11.26
				c6.29,0,11.26,5.12,11.26,11.26C329.71,109.91,324.74,115.03,318.45,115.03z M318.45,103.04c-0.29,0-0.59,0.29-0.59,0.59
				s0.29,0.59,0.59,0.59s0.59-0.29,0.59-0.59S318.74,103.04,318.45,103.04z"/>
		</g>
	</g>
</g>
</svg>
