<?xml version="1.0" encoding="utf-8"?>
<!-- Generator: Adobe Illustrator 26.5.0, SVG Export Plug-In . SVG Version: 6.00 Build 0)  -->
<svg version="1.1" id="Layer_1" xmlns="http://www.w3.org/2000/svg" xmlns:xlink="http://www.w3.org/1999/xlink" x="0px" y="0px"
	 viewBox="0 0 512 512" style="enable-background:new 0 0 512 512;" xml:space="preserve">
<style type="text/css">
	.st0{fill:#FF0101;}
	.st1{fill:#0101FF;}
	.st2{fill:#01FF01;}
	.st3{fill:#050505;}
</style>
<g id="XMLID_1_">
	<path id="XMLID_2_" class="st0" d="M205.35,180.25c-37.87-21.88-56.39-66.49-45.03-108.71C171.68,29.32,209.98,0,253.6,0
		c43.77,0,82.06,29.32,93.28,71.54c11.36,42.22-7.15,86.83-45.03,108.71l-29.04-50.36c15.01-8.7,22.44-26.37,17.96-43.2
		C286.29,69.86,271,58.21,253.6,58.21s-32.68,11.64-37.17,28.48c-4.49,16.83,2.81,34.51,17.96,43.2L205.35,180.25z"/>
	<path id="XMLID_3_" class="st1" d="M412.25,203.68c37.87,21.88,56.39,66.49,45.03,108.71c-11.36,42.22-49.66,71.54-93.28,71.54
		s-82.06-29.32-93.28-71.54c-11.36-42.22,7.15-86.83,45.03-108.71l29.04,50.36c-15.01,8.7-22.44,26.37-17.96,43.2
		c4.49,16.83,19.78,28.48,37.17,28.48c17.39,0,32.68-11.64,37.17-28.48c4.49-16.83-2.81-34.51-17.96-43.2L412.25,203.68z"/>
	<path id="XMLID_4_" class="st2" d="M242.1,287.28c0,43.77-29.32,82.06-71.54,93.28c-42.22,11.36-86.83-7.15-108.71-45.03
		s-15.57-85.71,15.29-116.57s78.69-37.17,116.57-15.29l-29.04,50.36c-15.01-8.7-34.09-6.17-46.43,6.17
		c-12.34,12.34-14.87,31.28-6.17,46.43c8.7,15.01,26.37,22.44,43.2,17.96c16.83-4.49,28.48-19.78,28.48-37.17h58.35V287.28z"/>
	<path id="XMLID_5_" class="st3" d="M76.44,407.08c8.14-0.7,16.41-0.7,24.55,0.42c5.05,0.84,10.38,2.24,14.17,5.89
		c3.93,4.35,4.91,10.52,5.75,16.13c1.4,11.64,1.26,23.57,0,35.21c-0.84,5.75-1.68,11.92-5.47,16.55c-4.07,4.21-10.1,5.33-15.71,6.17
		c-8.14,0.98-16.41,1.26-24.69,0.42c-5.61-0.56-11.36-1.54-16.13-4.77c-3.09-1.96-4.77-5.33-5.75-8.7
		c-2.24-6.87-2.52-14.31-2.81-21.46c0-9.54,0.14-19.22,1.96-28.48c0.98-4.35,2.24-9.26,5.89-12.06
		C63.67,408.62,70.26,407.78,76.44,407.08z M77.84,420.12c-3.51,0.56-7.72,0.84-9.82,4.07c-1.82,4.77-1.68,9.96-2.1,15.01
		c-0.14,8.98-0.56,17.96,0.7,26.93c0.56,2.95,1.54,6.59,4.91,7.43c7.29,2.24,15.01,1.82,22.44,1.4c3.65-0.56,8.7-0.84,10.52-4.77
		c2.1-5.89,1.96-12.34,2.24-18.52c-0.14-8.7,0.42-17.53-1.68-26.09c-0.56-3.09-3.65-4.35-6.31-4.91
		C91.87,419.42,84.71,419.56,77.84,420.12z M150.92,434.15c4.91-3.09,11.08-3.65,16.83-3.09c5.33,0.42,11.22,2.24,14.17,7.15
		c3.37,6.17,3.65,13.47,3.79,20.34c-0.14,7.15-0.28,14.45-3.23,21.04c-1.68,4.07-5.47,6.59-9.68,7.72
		c-6.31,1.54-13.19,1.68-19.22-0.84c-3.23-1.26-5.61-4.07-7.43-6.87V512h-13.89c0-26.79,0-53.58,0-80.38c4.49,0,8.98,0,13.47,0
		c-0.14,2.81-0.28,5.47-0.42,8.28C146.99,437.8,148.54,435.55,150.92,434.15z M155.41,441.44c-3.37,0.28-6.87,1.82-7.86,5.33
		c-1.82,6.03-1.4,12.48-1.26,18.8c0.42,4.07,0.98,9.4,5.33,11.22c4.63,1.82,10.1,1.68,14.87,0.14c4.07-1.4,4.63-6.31,5.05-9.96
		c0.42-6.17,0.56-12.48-0.56-18.52c-0.42-2.38-1.68-4.77-3.93-5.75C163.41,441.02,159.34,441.16,155.41,441.44z M202.26,434.29
		c6.87-3.51,14.87-3.65,22.3-3.23c6.17,0.56,13.75,1.54,17.25,7.57c3.93,7.15,3.23,15.71,3.79,23.57h-37.87
		c0.42,4.07-0.14,8.42,1.96,12.2c1.82,2.95,5.47,3.51,8.7,3.79c3.93,0,8.14,0.28,11.64-1.4c2.1-1.54,2.1-4.49,2.38-6.87
		c4.49,0,8.84,0,13.33,0c-0.14,4.63-0.7,9.82-4.49,13.05c-5.61,5.05-13.61,5.47-20.76,5.61c-6.31-0.14-12.91-0.56-18.66-3.65
		c-4.63-2.67-6.03-8.28-6.87-13.19c-0.98-7.29-1.26-14.59-0.42-21.88C195.25,443.97,196.79,437.23,202.26,434.29z M210.4,443.13
		c-2.95,2.67-2.67,7.01-2.81,10.66c8.14,0,16.27,0,24.41,0c0-3.23,0.28-6.73-1.4-9.68c-1.68-2.38-4.91-2.52-7.57-2.81
		C218.96,441.3,214.19,440.74,210.4,443.13z M275.21,434.29c4.77-3.37,10.94-3.79,16.69-3.09c4.77,0.56,9.96,2.38,12.76,6.45
		c2.52,3.51,3.23,7.86,3.23,11.92c0,12.76,0,25.39,0,38.15c-4.35,0-8.84,0-13.19,0c0-12.06,0-24.13,0-36.05
		c-0.14-2.67,0-5.61-1.96-7.72c-2.1-2.24-5.47-2.67-8.42-2.67c-3.51,0-7.43,0.56-10.1,3.09c-2.67,2.24-3.65,6.03-3.65,9.4
		c0,11.36,0,22.72,0,34.09c-4.35,0-8.84,0-13.19,0c0-18.66,0-37.45,0-56.11c4.35,0,8.7,0,12.91,0c0,3.23-0.28,6.59-0.42,9.82
		C271,438.78,272.54,435.97,275.21,434.29z M331.6,409.6c7.29-2.38,15.01-2.81,22.58-3.09c7.43,0,15.01,0.14,21.88,3.09
		c3.51,1.4,5.89,4.63,7.15,8.14c1.96,5.33,1.96,10.94,1.96,16.55c-5.05,0-10.1,0-15.15,0c-0.14-3.93,0.28-8.28-2.24-11.64
		c-2.38-2.52-6.31-2.52-9.54-2.81c-6.59-0.14-13.47-0.56-19.78,1.68c-2.24,0.7-3.51,2.95-3.93,5.19
		c-1.26,5.89-1.26,11.92-1.26,17.96c0.14,8,0,16.13,1.68,23.99c0.42,2.95,3.09,4.63,5.75,5.33c6.17,1.54,12.62,1.26,18.94,0.98
		c3.23-0.42,7.29-0.7,9.4-3.65c2.24-3.65,1.82-8,1.68-12.06c5.05,0,10.24,0,15.29,0c0,6.31-0.14,12.91-2.52,18.94
		c-1.26,3.09-3.65,5.89-6.87,7.01c-6.31,2.52-13.19,2.67-19.78,3.09c-7.72,0.14-15.57,0-23-1.82c-4.35-1.12-9.26-3.23-11.22-7.57
		c-2.67-5.75-3.09-12.2-3.79-18.52c-0.56-8.28-0.98-16.55-0.7-24.83c0.42-6.73,0.98-13.75,4.63-19.64
		C324.72,412.83,328.09,410.86,331.6,409.6z M388.69,407.36c5.33,0,10.52-0.14,15.85,0.14c5.19,16.27,10.8,32.4,15.99,48.68
		c1.96,6.31,3.51,12.62,5.47,18.94c2.38-6.73,3.79-13.75,6.17-20.48c5.05-15.71,10.24-31.42,15.29-47.13
		c5.19-0.28,10.38,0,15.71-0.14v1.68c-8.56,26.23-16.97,52.46-25.39,78.69c-7.86,0.14-15.71,0.14-23.57,0
		C405.8,460.8,396.96,434.15,388.69,407.36z"/>
</g>
</svg>
